<svg width="22" height="22" viewBox="0 0 22 22" fill="none" xmlns="http://www.w3.org/2000/svg">
<path fill-rule="evenodd" clip-rule="evenodd" d="M11 2C6.02944 2 2 6.02944 2 11C2 15.9706 6.02944 20 11 20C15.9706 20 20 15.9706 20 11C20 6.02944 15.9706 2 11 2ZM0 11C0 4.92487 4.92487 0 11 0C17.0751 0 22 4.92487 22 11C22 17.0751 17.0751 22 11 22C4.92487 22 0 17.0751 0 11ZM11.7077 6.29352L15.7071 10.2929C16.0976 10.6834 16.0976 11.3166 15.7071 11.7071C15.3166 12.0976 14.6834 12.0976 14.2929 11.7071L12 9.41421V15C12 15.5523 11.5523 16 11 16C10.4477 16 10 15.5523 10 15V9.41421L7.70711 11.7071C7.31658 12.0976 6.68342 12.0976 6.29289 11.7071C5.90237 11.3166 5.90237 10.6834 6.29289 10.2929L10.2923 6.29352L10.2929 6.29289C10.2951 6.29072 10.2973 6.28855 10.2995 6.2864C10.297 6.28876 10.2946 6.29113 10.2923 6.29352M10.6172 6.07588C10.8617 5.97471 11.1383 5.97471 11.3828 6.07588C11.2649 6.02699 11.1356 6 11 6C10.8644 6 10.7351 6.02699 10.6172 6.07588ZM11.7005 6.2864C11.7027 6.28855 11.7049 6.29072 11.7071 6.29289L11.7077 6.29352" fill="#302A3E"/>
</svg>
