<svg width="14" height="14" viewBox="0 0 14 14" fill="none" xmlns="http://www.w3.org/2000/svg">
<path d="M6.29378 3.05329C6.52762 3.01745 6.76388 2.99962 7.00045 2.99996C9.12045 2.99996 11.1138 4.52663 12.2738 6.99996C12.0964 7.37636 11.896 7.74149 11.6738 8.09329C11.6032 8.2025 11.5662 8.32995 11.5671 8.45996C11.5686 8.60545 11.6176 8.74646 11.7068 8.86148C11.7959 8.97649 11.9202 9.0592 12.0607 9.09697C12.2012 9.13474 12.3502 9.12551 12.485 9.07068C12.6197 9.01585 12.7329 8.91843 12.8071 8.79329C13.1177 8.30525 13.3875 7.7924 13.6138 7.25996C13.6495 7.17678 13.668 7.08718 13.668 6.99663C13.668 6.90608 13.6495 6.81648 13.6138 6.73329C12.2671 3.60663 9.73378 1.66663 7.00045 1.66663C6.68756 1.66505 6.37517 1.69183 6.06712 1.74663C5.97957 1.76151 5.89581 1.79349 5.82062 1.84075C5.74543 1.888 5.68029 1.9496 5.62891 2.02203C5.57752 2.09446 5.54091 2.1763 5.52116 2.26288C5.50141 2.34946 5.4989 2.43908 5.51378 2.52663C5.52867 2.61418 5.56065 2.69793 5.6079 2.77312C5.65515 2.84831 5.71675 2.91346 5.78918 2.96484C5.86161 3.01622 5.94345 3.05283 6.03003 3.07258C6.11661 3.09234 6.20623 3.09484 6.29378 3.07996V3.05329ZM1.47378 0.526627C1.41162 0.464468 1.33783 0.415161 1.25662 0.381521C1.1754 0.347881 1.08836 0.330566 1.00045 0.330566C0.912543 0.330566 0.825498 0.347881 0.744283 0.381521C0.663068 0.415161 0.589275 0.464468 0.527116 0.526627C0.40158 0.652163 0.331055 0.822426 0.331055 0.999961C0.331055 1.1775 0.40158 1.34776 0.527116 1.47329L2.59378 3.53329C1.65083 4.44098 0.900354 5.52929 0.387116 6.73329C0.350407 6.8174 0.331459 6.90819 0.331459 6.99996C0.331459 7.09173 0.350407 7.18252 0.387116 7.26663C1.73378 10.3933 4.26712 12.3333 7.00045 12.3333C8.19852 12.325 9.3683 11.9683 10.3671 11.3066L12.5271 13.4733C12.5891 13.5358 12.6628 13.5854 12.7441 13.6192C12.8253 13.6531 12.9124 13.6705 13.0004 13.6705C13.0885 13.6705 13.1756 13.6531 13.2568 13.6192C13.3381 13.5854 13.4118 13.5358 13.4738 13.4733C13.5363 13.4113 13.5859 13.3376 13.6197 13.2563C13.6536 13.1751 13.671 13.088 13.671 13C13.671 12.912 13.6536 12.8248 13.6197 12.7436C13.5859 12.6623 13.5363 12.5886 13.4738 12.5266L1.47378 0.526627ZM5.71378 6.65329L7.34712 8.28663C7.23444 8.31894 7.11766 8.33466 7.00045 8.33329C6.64683 8.33329 6.30769 8.19282 6.05764 7.94277C5.80759 7.69272 5.66712 7.35358 5.66712 6.99996C5.66575 6.88275 5.68147 6.76597 5.71378 6.65329ZM7.00045 11C4.88045 11 2.88712 9.47329 1.73378 6.99996C2.16451 6.04913 2.77583 5.19101 3.53378 4.47329L4.71378 5.66663C4.43661 6.17249 4.33094 6.75459 4.41262 7.3256C4.4943 7.89661 4.75893 8.42574 5.1668 8.83361C5.57467 9.24148 6.1038 9.50611 6.67481 9.58779C7.24582 9.66947 7.82792 9.5638 8.33378 9.28663L9.39378 10.3333C8.66784 10.7605 7.84273 10.9904 7.00045 11Z" fill="#302A3E" fill-opacity="0.3"/>
</svg>
