<svg width="11" height="12" viewBox="0 0 11 12" fill="none" xmlns="http://www.w3.org/2000/svg">
<path fill-rule="evenodd" clip-rule="evenodd" d="M5.85694 2.72782C4.02116 2.72782 2.53298 4.21601 2.53298 6.05178C2.53298 6.43812 2.5987 6.80816 2.71922 7.15191C2.81288 7.41906 2.84705 7.73173 2.75644 8.04207L2.29866 9.61005L3.86664 9.15227C4.17698 9.06166 4.48965 9.09583 4.7568 9.18949C5.10056 9.31001 5.4706 9.37574 5.85694 9.37574C7.69271 9.37574 9.18089 7.88755 9.18089 6.05178C9.18089 4.21601 7.69271 2.72782 5.85694 2.72782ZM1.64659 6.05178C1.64659 3.72647 3.53162 1.84143 5.85694 1.84143C8.18225 1.84143 10.0673 3.72647 10.0673 6.05178C10.0673 8.37709 8.18225 10.2621 5.85694 10.2621C5.36936 10.2621 4.90024 10.1791 4.46354 10.026C4.33117 9.97955 4.21112 9.97509 4.11506 10.0031L2.54708 10.4609C1.87513 10.6571 1.25162 10.0336 1.44779 9.36164L1.90558 7.79366C1.93362 7.6976 1.92916 7.57755 1.88275 7.44517C1.72965 7.00847 1.64659 6.53935 1.64659 6.05178Z" fill="#302A3E"/>
</svg>
