<svg width="8" height="8" viewBox="0 0 8 8" fill="none" xmlns="http://www.w3.org/2000/svg">
<path fill-rule="evenodd" clip-rule="evenodd" d="M2.07035 1.06158C1.76439 1.06158 1.51635 1.30961 1.51635 1.61557V4.66617C1.68257 4.5812 1.87086 4.53327 2.07035 4.53327H5.57897V1.06158H2.07035ZM6.24376 4.86567V1.02465C6.24376 0.677892 5.96266 0.39679 5.6159 0.39679H2.07035C1.39723 0.39679 0.851562 0.942458 0.851562 1.61557V5.75206C0.851562 6.42517 1.39723 6.97084 2.07035 6.97084H5.6159C5.96266 6.97084 6.24376 6.68974 6.24376 6.34298V4.86567ZM5.57897 5.19806H2.07035C1.76439 5.19806 1.51635 5.4461 1.51635 5.75206C1.51635 6.05802 1.76439 6.30605 2.07035 6.30605H5.57897V5.19806ZM2.32888 2.2065C2.32888 2.02292 2.4777 1.8741 2.66127 1.8741H4.43405C4.61763 1.8741 4.76645 2.02292 4.76645 2.2065C4.76645 2.39008 4.61763 2.5389 4.43405 2.5389H2.66127C2.4777 2.5389 2.32888 2.39008 2.32888 2.2065ZM2.9198 3.09289C2.9198 2.90931 3.06862 2.76049 3.2522 2.76049H3.84313C4.0267 2.76049 4.17552 2.90931 4.17552 3.09289C4.17552 3.27647 4.0267 3.42529 3.84313 3.42529H3.2522C3.06862 3.42529 2.9198 3.27647 2.9198 3.09289Z" fill="#302A3E"/>
</svg>
