<svg width="12" height="12" viewBox="0 0 12 12" fill="none" xmlns="http://www.w3.org/2000/svg">
<path fill-rule="evenodd" clip-rule="evenodd" d="M8.47588 2.28458C7.98634 2.28458 7.58949 2.68143 7.58949 3.17097C7.58949 3.32485 7.6287 3.46958 7.69768 3.59569C7.70222 3.60257 7.70659 3.60961 7.7108 3.61681C7.71497 3.62396 7.71892 3.63118 7.72265 3.63846C7.87907 3.88995 8.15792 4.05736 8.47588 4.05736C8.96542 4.05736 9.36227 3.66051 9.36227 3.17097C9.36227 2.68143 8.96542 2.28458 8.47588 2.28458ZM7.21635 4.4185C7.53762 4.74284 7.98329 4.94375 8.47588 4.94375C9.45496 4.94375 10.2487 4.15005 10.2487 3.17097C10.2487 2.19189 9.45496 1.39819 8.47588 1.39819C7.4968 1.39819 6.7031 2.19189 6.7031 3.17097C6.7031 3.33807 6.72622 3.49976 6.76943 3.65303L4.41708 5.02581C4.09581 4.70147 3.65014 4.50056 3.15754 4.50056C2.17847 4.50056 1.38477 5.29426 1.38477 6.27333C1.38477 7.25241 2.17847 8.04611 3.15754 8.04611C3.65023 8.04611 4.09597 7.84513 4.41726 7.52067L6.76999 8.89166C6.72642 9.04552 6.7031 9.20789 6.7031 9.3757C6.7031 10.3548 7.4968 11.1485 8.47588 11.1485C9.45496 11.1485 10.2487 10.3548 10.2487 9.3757C10.2487 8.39662 9.45496 7.60292 8.47588 7.60292C7.98403 7.60292 7.53896 7.80322 7.2178 8.12671L4.86407 6.75514C4.90723 6.60194 4.93032 6.44033 4.93032 6.27333C4.93032 6.10624 4.90721 5.94455 4.864 5.79129L7.21635 4.4185ZM3.91091 5.80607C3.91461 5.81327 3.91852 5.82042 3.92265 5.82749C3.92681 5.83462 3.93114 5.84159 3.93563 5.8484C4.00468 5.97457 4.04393 6.11937 4.04393 6.27333C4.04393 6.4273 4.00468 6.57209 3.93563 6.69826C3.93109 6.70515 3.92671 6.7122 3.92251 6.71942C3.91843 6.72642 3.91456 6.73348 3.91091 6.7406C3.75452 6.99221 3.47559 7.15972 3.15754 7.15972C2.668 7.15972 2.27115 6.76287 2.27115 6.27333C2.27115 5.78379 2.668 5.38694 3.15754 5.38694C3.47559 5.38694 3.75452 5.55446 3.91091 5.80607ZM7.68487 8.97529C7.69583 8.96088 7.70603 8.94565 7.71537 8.92961C7.72433 8.91423 7.73226 8.89854 7.73918 8.88261C7.89825 8.64543 8.16883 8.48931 8.47588 8.48931C8.96542 8.48931 9.36227 8.88616 9.36227 9.3757C9.36227 9.86524 8.96542 10.2621 8.47588 10.2621C7.98634 10.2621 7.58949 9.86524 7.58949 9.3757C7.58949 9.23161 7.62387 9.09556 7.68487 8.97529Z" fill="#302A3E"/>
</svg>
