<svg width="99" height="105" viewBox="0 0 99 105" fill="none" xmlns="http://www.w3.org/2000/svg">
<g clip-path="url(#clip0_223_9743)">
<path d="M0 0H48V61H0V0Z" fill="#536798"/>
<path d="M3 9.03699H45V57.9876H3V9.03699Z" fill="#E0F2FC"/>
<path d="M24 45.1852C35.598 45.1852 45 35.7445 45 24.0987C45 12.453 35.598 3.01233 24 3.01233C12.402 3.01233 3 12.453 3 24.0987C3 35.7445 12.402 45.1852 24 45.1852Z" fill="#E0F2FC"/>
<path d="M24.0004 42.7753C34.2729 42.7753 42.6004 34.4136 42.6004 24.0988C42.6004 13.784 34.2729 5.42224 24.0004 5.42224C13.7279 5.42224 5.40039 13.784 5.40039 24.0988C5.40039 34.4136 13.7279 42.7753 24.0004 42.7753Z" fill="white"/>
<path d="M11.8498 23.3456V20.258H10.7998L10.7248 20.9357C10.6498 21.3876 10.6498 21.6888 10.5748 21.9901C10.4998 22.2913 10.4248 22.5172 10.3498 22.7432C10.2748 22.8938 10.1998 23.0444 10.0498 23.1197C9.8998 23.195 9.8248 23.3456 9.6748 23.3456C9.5248 23.3456 9.4498 23.3456 9.2998 23.3456V22.5925C9.3748 22.5925 9.44981 22.5925 9.44981 22.5925C9.52481 22.5925 9.52481 22.5172 9.59981 22.4419C9.67481 22.3666 9.7498 22.216 9.7498 22.0654C9.8248 21.9148 9.8248 21.6888 9.8998 21.3876C9.9748 21.0864 9.9748 20.7098 10.0498 20.258L10.1248 19.5049H12.4498V23.2703H11.8498V23.3456ZM14.0998 23.3456H13.4998V19.5802H14.1748V22.216L16.1248 19.5802H16.7248V23.3456H16.0498V20.7098L14.0998 23.3456ZM17.6998 23.3456V19.5802H18.3748V22.6678H19.9498V19.5802H20.6248V22.6678H21.1498V23.9481H20.5498V23.3456H17.6998ZM21.7498 23.3456V19.5802H23.8498V20.1827H22.3498V21.0864H23.6998V21.6888H22.3498V22.6678H23.8498V23.3456H21.7498ZM27.0748 23.3456V21.7641H25.4248V23.3456H24.7498V19.5802H25.4248V21.0864H27.0748V19.5802H27.7498V23.3456H27.0748ZM29.6248 23.3456C29.3248 23.3456 29.0998 23.2703 28.8748 23.195C28.6498 23.0444 28.4998 22.8938 28.3498 22.7432L28.7248 22.2913C28.8748 22.4419 28.9498 22.5172 29.1748 22.5925C29.3248 22.6678 29.4748 22.7432 29.6248 22.7432C29.8498 22.7432 29.9998 22.6678 30.0748 22.5925C30.2248 22.5172 30.2998 22.3666 30.2998 22.216C30.2998 22.0654 30.2248 21.9148 30.1498 21.8395C30.0748 21.7641 29.8498 21.6888 29.6998 21.6888H29.2498V21.0864H29.6248C29.7748 21.0864 29.9248 21.0111 29.9998 20.9357C30.0748 20.8604 30.1498 20.7098 30.1498 20.5592C30.1498 20.4086 30.0748 20.3333 29.9998 20.258C29.9248 20.1827 29.7748 20.1074 29.6248 20.1074C29.3248 20.1074 29.0998 20.258 28.8748 20.4839L28.4998 20.1827C28.6498 20.032 28.7998 19.8814 29.0248 19.7308C29.2498 19.6555 29.4748 19.5802 29.6998 19.5802C29.9998 19.5802 30.2998 19.6555 30.5248 19.8814C30.7498 20.032 30.8248 20.3333 30.8248 20.6345C30.8248 20.7851 30.7498 20.9357 30.6748 21.0864C30.5998 21.237 30.4498 21.3876 30.2998 21.4629C30.5248 21.5382 30.6748 21.6135 30.7498 21.7641C30.8248 21.9148 30.8998 22.1407 30.8998 22.2913C30.8998 22.5925 30.7498 22.8938 30.5248 23.0444C30.2998 23.2703 29.9998 23.3456 29.6248 23.3456ZM32.3998 23.3456H31.7998V19.5802H32.4748V22.216L34.4248 19.5802H35.0248V23.3456H34.3498V20.7098L32.3998 23.3456ZM37.6498 23.3456V22.0654H37.1248L36.2248 23.3456H35.4748L36.4498 21.9148C36.2248 21.8395 36.0748 21.6888 35.9998 21.5382C35.8498 21.3876 35.8498 21.1617 35.8498 20.9357C35.8498 20.5592 35.9998 20.258 36.2248 20.032C36.4498 19.8061 36.8248 19.6555 37.3498 19.6555C37.4248 19.6555 37.5748 19.6555 37.7998 19.6555C38.0248 19.6555 38.1748 19.6555 38.2498 19.6555V23.3456H37.6498ZM37.0498 21.4629H37.6498V20.258C37.4998 20.258 37.3498 20.258 37.2748 20.258C37.0498 20.258 36.8998 20.3333 36.7498 20.4086C36.5998 20.5592 36.5248 20.7098 36.5248 20.8604C36.5248 21.0111 36.5998 21.1617 36.6748 21.237C36.7498 21.3123 36.8998 21.4629 37.0498 21.4629Z" fill="#727272"/>
<path d="M12.9746 43.905H35.3996M20.2496 33.3618H27.7496H20.2496ZM14.9996 14.9111H32.9996H14.9996ZM14.9996 27.7136H17.9996H14.9996ZM21.7496 27.7136H32.9996H21.7496ZM12.9746 37.8803H35.3996H12.9746ZM12.9746 40.8926H35.3996H12.9746Z" stroke="#727272" stroke-width="0.5" stroke-linecap="square"/>
<path d="M24 12.0493C25.6569 12.0493 27 10.7007 27 9.037C27 7.37333 25.6569 6.02466 24 6.02466C22.3431 6.02466 21 7.37333 21 9.037C21 10.7007 22.3431 12.0493 24 12.0493Z" fill="#EADCC8"/>
<path d="M36.7498 55.0506C39.2765 55.0506 41.3248 52.9938 41.3248 50.4567C41.3248 47.9196 39.2765 45.8629 36.7498 45.8629C34.2231 45.8629 32.1748 47.9196 32.1748 50.4567C32.1748 52.9938 34.2231 55.0506 36.7498 55.0506Z" fill="#536798"/>
</g>
<path d="M1.52 87C1.37333 87 1.25 86.95 1.15 86.85C1.05 86.75 1 86.6267 1 86.48V79.71C1 79.5567 1.05 79.4333 1.15 79.34C1.25 79.24 1.37333 79.19 1.52 79.19H5.65C5.80333 79.19 5.92667 79.2367 6.02 79.33C6.11333 79.4167 6.16 79.5333 6.16 79.68C6.16 79.82 6.11333 79.9333 6.02 80.02C5.92667 80.1067 5.80333 80.15 5.65 80.15H2.04V86.48C2.04 86.6267 1.99 86.75 1.89 86.85C1.79 86.95 1.66667 87 1.52 87ZM9.63977 87.04C9.09977 87.04 8.6231 86.9233 8.20977 86.69C7.79643 86.45 7.46977 86.1233 7.22977 85.71C6.99643 85.29 6.87977 84.81 6.87977 84.27C6.87977 83.7233 6.99643 83.2433 7.22977 82.83C7.46977 82.41 7.79643 82.0833 8.20977 81.85C8.6231 81.61 9.09977 81.49 9.63977 81.49C10.1731 81.49 10.6464 81.61 11.0598 81.85C11.4731 82.0833 11.7964 82.41 12.0298 82.83C12.2698 83.2433 12.3898 83.7233 12.3898 84.27C12.3898 84.81 12.2731 85.29 12.0398 85.71C11.8064 86.1233 11.4831 86.45 11.0698 86.69C10.6564 86.9233 10.1798 87.04 9.63977 87.04ZM9.63977 86.14C9.98643 86.14 10.2931 86.06 10.5598 85.9C10.8264 85.74 11.0331 85.52 11.1798 85.24C11.3331 84.96 11.4098 84.6367 11.4098 84.27C11.4098 83.9033 11.3331 83.58 11.1798 83.3C11.0331 83.0133 10.8264 82.79 10.5598 82.63C10.2931 82.47 9.98643 82.39 9.63977 82.39C9.2931 82.39 8.98643 82.47 8.71977 82.63C8.4531 82.79 8.2431 83.0133 8.08977 83.3C7.93643 83.58 7.85977 83.9033 7.85977 84.27C7.85977 84.6367 7.93643 84.96 8.08977 85.24C8.2431 85.52 8.4531 85.74 8.71977 85.9C8.98643 86.06 9.2931 86.14 9.63977 86.14ZM16.3878 87.04C15.8545 87.04 15.3778 86.92 14.9578 86.68C14.5445 86.4333 14.2178 86.1033 13.9778 85.69C13.7445 85.27 13.6278 84.7967 13.6278 84.27C13.6278 83.73 13.7445 83.25 13.9778 82.83C14.2111 82.41 14.5311 82.0833 14.9378 81.85C15.3445 81.61 15.8111 81.49 16.3378 81.49C16.7311 81.49 17.0911 81.5667 17.4178 81.72C17.7445 81.8667 18.0378 82.09 18.2978 82.39C18.3911 82.4967 18.4245 82.6067 18.3978 82.72C18.3711 82.8333 18.2978 82.9333 18.1778 83.02C18.0845 83.0867 17.9811 83.11 17.8678 83.09C17.7545 83.0633 17.6511 83.0033 17.5578 82.91C17.2311 82.5633 16.8245 82.39 16.3378 82.39C15.9978 82.39 15.6978 82.47 15.4378 82.63C15.1778 82.7833 14.9745 83 14.8278 83.28C14.6811 83.56 14.6078 83.89 14.6078 84.27C14.6078 84.63 14.6811 84.95 14.8278 85.23C14.9811 85.51 15.1911 85.7333 15.4578 85.9C15.7245 86.06 16.0345 86.14 16.3878 86.14C16.6211 86.14 16.8245 86.1133 16.9978 86.06C17.1778 86 17.3411 85.91 17.4878 85.79C17.5945 85.7033 17.7045 85.6567 17.8178 85.65C17.9311 85.6367 18.0311 85.6667 18.1178 85.74C18.2311 85.8333 18.2945 85.94 18.3078 86.06C18.3211 86.1733 18.2811 86.2767 18.1878 86.37C17.7078 86.8167 17.1078 87.04 16.3878 87.04ZM19.7937 89.4C19.6737 89.4 19.5503 89.3833 19.4237 89.35C19.3037 89.3167 19.1837 89.2667 19.0637 89.2C18.917 89.1133 18.8203 89.0067 18.7737 88.88C18.727 88.7533 18.747 88.63 18.8337 88.51C18.9137 88.3967 19.0103 88.3267 19.1237 88.3C19.237 88.2733 19.357 88.2967 19.4837 88.37C19.557 88.41 19.6237 88.44 19.6837 88.46C19.7503 88.48 19.817 88.49 19.8837 88.49C20.097 88.49 20.3003 88.38 20.4937 88.16C20.6937 87.94 20.8903 87.6133 21.0837 87.18L23.4737 81.78C23.5337 81.6467 23.6237 81.5567 23.7437 81.51C23.8703 81.4633 23.997 81.47 24.1237 81.53C24.237 81.5767 24.3103 81.6633 24.3437 81.79C24.377 81.91 24.3603 82.04 24.2937 82.18L21.8837 87.58C21.6437 88.12 21.337 88.5567 20.9637 88.89C20.597 89.23 20.207 89.4 19.7937 89.4ZM22.0737 86.78C21.947 86.8333 21.827 86.84 21.7137 86.8C21.607 86.7533 21.5203 86.6667 21.4537 86.54L19.1637 82.19C19.097 82.0633 19.087 81.9433 19.1337 81.83C19.187 81.71 19.277 81.6233 19.4037 81.57C19.5303 81.5167 19.647 81.5133 19.7537 81.56C19.867 81.6 19.957 81.6833 20.0237 81.81L22.2237 86.12C22.2903 86.2467 22.3137 86.3767 22.2937 86.51C22.2737 86.6367 22.2003 86.7267 22.0737 86.78ZM27.4769 87.04C26.9769 87.04 26.5335 86.9233 26.1469 86.69C25.7669 86.45 25.4669 86.1233 25.2469 85.71C25.0269 85.29 24.9169 84.81 24.9169 84.27C24.9169 83.7233 25.0335 83.2433 25.2669 82.83C25.5069 82.41 25.8335 82.0833 26.2469 81.85C26.6602 81.61 27.1369 81.49 27.6769 81.49C28.2102 81.49 28.6835 81.61 29.0969 81.85C29.5102 82.0833 29.8335 82.41 30.0669 82.83C30.3069 83.2433 30.4269 83.7233 30.4269 84.27H29.8369C29.8369 84.81 29.7335 85.29 29.5269 85.71C29.3269 86.1233 29.0502 86.45 28.6969 86.69C28.3435 86.9233 27.9369 87.04 27.4769 87.04ZM27.6569 89.27C27.1835 89.27 26.7402 89.1767 26.3269 88.99C25.9135 88.8033 25.5635 88.53 25.2769 88.17C25.1902 88.0567 25.1569 87.94 25.1769 87.82C25.2035 87.7 25.2702 87.6033 25.3769 87.53C25.4969 87.45 25.6202 87.4233 25.7469 87.45C25.8802 87.4767 25.9869 87.5433 26.0669 87.65C26.2469 87.8767 26.4735 88.0533 26.7469 88.18C27.0202 88.3067 27.3302 88.37 27.6769 88.37C27.9969 88.37 28.2902 88.2933 28.5569 88.14C28.8302 87.9867 29.0469 87.76 29.2069 87.46C29.3669 87.16 29.4469 86.7933 29.4469 86.36V84.94L29.7769 84.06L30.4269 84.27V86.43C30.4269 86.9567 30.3102 87.4333 30.0769 87.86C29.8435 88.2933 29.5169 88.6367 29.0969 88.89C28.6835 89.1433 28.2035 89.27 27.6569 89.27ZM27.6769 86.14C28.0235 86.14 28.3302 86.06 28.5969 85.9C28.8635 85.74 29.0702 85.52 29.2169 85.24C29.3702 84.96 29.4469 84.6367 29.4469 84.27C29.4469 83.9033 29.3702 83.58 29.2169 83.3C29.0702 83.0133 28.8635 82.79 28.5969 82.63C28.3302 82.47 28.0235 82.39 27.6769 82.39C27.3302 82.39 27.0235 82.47 26.7569 82.63C26.4902 82.79 26.2802 83.0133 26.1269 83.3C25.9735 83.58 25.8969 83.9033 25.8969 84.27C25.8969 84.6367 25.9735 84.96 26.1269 85.24C26.2802 85.52 26.4902 85.74 26.7569 85.9C27.0235 86.06 27.3302 86.14 27.6769 86.14ZM34.2249 87.04C33.7383 87.04 33.3016 86.92 32.9149 86.68C32.5283 86.4333 32.2216 86.1033 31.9949 85.69C31.7749 85.27 31.6649 84.7967 31.6649 84.27C31.6649 83.7433 31.7849 83.27 32.0249 82.85C32.2716 82.43 32.6016 82.1 33.0149 81.86C33.4349 81.6133 33.9049 81.49 34.4249 81.49C34.9449 81.49 35.4116 81.6133 35.8249 81.86C36.2383 82.1 36.5649 82.43 36.8049 82.85C37.0516 83.27 37.1749 83.7433 37.1749 84.27H36.7849C36.7849 84.7967 36.6716 85.27 36.4449 85.69C36.2249 86.1033 35.9216 86.4333 35.5349 86.68C35.1483 86.92 34.7116 87.04 34.2249 87.04ZM34.4249 86.14C34.7649 86.14 35.0683 86.06 35.3349 85.9C35.6016 85.7333 35.8116 85.51 35.9649 85.23C36.1183 84.9433 36.1949 84.6233 36.1949 84.27C36.1949 83.91 36.1183 83.59 35.9649 83.31C35.8116 83.0233 35.6016 82.8 35.3349 82.64C35.0683 82.4733 34.7649 82.39 34.4249 82.39C34.0916 82.39 33.7883 82.4733 33.5149 82.64C33.2483 82.8 33.0349 83.0233 32.8749 83.31C32.7216 83.59 32.6449 83.91 32.6449 84.27C32.6449 84.6233 32.7216 84.9433 32.8749 85.23C33.0349 85.51 33.2483 85.7333 33.5149 85.9C33.7883 86.06 34.0916 86.14 34.4249 86.14ZM36.6649 87.01C36.5183 87.01 36.3949 86.9633 36.2949 86.87C36.2016 86.77 36.1549 86.6467 36.1549 86.5V84.97L36.3449 83.91L37.1749 84.27V86.5C37.1749 86.6467 37.1249 86.77 37.0249 86.87C36.9316 86.9633 36.8116 87.01 36.6649 87.01ZM39.203 89.34C39.0563 89.34 38.933 89.29 38.833 89.19C38.7396 89.0967 38.693 88.9767 38.693 88.83V84.27C38.6996 83.7433 38.823 83.27 39.063 82.85C39.303 82.43 39.6296 82.1 40.043 81.86C40.4563 81.6133 40.923 81.49 41.443 81.49C41.9696 81.49 42.4396 81.6133 42.853 81.86C43.2663 82.1 43.593 82.43 43.833 82.85C44.0796 83.27 44.203 83.7433 44.203 84.27C44.203 84.7967 44.0896 85.27 43.863 85.69C43.643 86.1033 43.3396 86.4333 42.953 86.68C42.5663 86.92 42.1296 87.04 41.643 87.04C41.2496 87.04 40.8863 86.96 40.553 86.8C40.2263 86.6333 39.9463 86.41 39.713 86.13V88.83C39.713 88.9767 39.6663 89.0967 39.573 89.19C39.4796 89.29 39.3563 89.34 39.203 89.34ZM41.443 86.14C41.783 86.14 42.0863 86.06 42.353 85.9C42.6196 85.7333 42.8296 85.51 42.983 85.23C43.143 84.9433 43.223 84.6233 43.223 84.27C43.223 83.91 43.143 83.59 42.983 83.31C42.8296 83.0233 42.6196 82.8 42.353 82.64C42.0863 82.4733 41.783 82.39 41.443 82.39C41.1096 82.39 40.8063 82.4733 40.533 82.64C40.2663 82.8 40.0563 83.0233 39.903 83.31C39.7496 83.59 39.673 83.91 39.673 84.27C39.673 84.6233 39.7496 84.9433 39.903 85.23C40.0563 85.51 40.2663 85.7333 40.533 85.9C40.8063 86.06 41.1096 86.14 41.443 86.14ZM48.2042 87.04C47.6709 87.04 47.1942 86.92 46.7742 86.68C46.3609 86.4333 46.0342 86.1033 45.7942 85.69C45.5609 85.27 45.4442 84.7967 45.4442 84.27C45.4442 83.73 45.5609 83.25 45.7942 82.83C46.0276 82.41 46.3476 82.0833 46.7542 81.85C47.1609 81.61 47.6276 81.49 48.1542 81.49C48.5476 81.49 48.9076 81.5667 49.2342 81.72C49.5609 81.8667 49.8542 82.09 50.1142 82.39C50.2076 82.4967 50.2409 82.6067 50.2142 82.72C50.1876 82.8333 50.1142 82.9333 49.9942 83.02C49.9009 83.0867 49.7976 83.11 49.6842 83.09C49.5709 83.0633 49.4676 83.0033 49.3742 82.91C49.0476 82.5633 48.6409 82.39 48.1542 82.39C47.8142 82.39 47.5142 82.47 47.2542 82.63C46.9942 82.7833 46.7909 83 46.6442 83.28C46.4976 83.56 46.4242 83.89 46.4242 84.27C46.4242 84.63 46.4976 84.95 46.6442 85.23C46.7976 85.51 47.0076 85.7333 47.2742 85.9C47.5409 86.06 47.8509 86.14 48.2042 86.14C48.4376 86.14 48.6409 86.1133 48.8142 86.06C48.9942 86 49.1576 85.91 49.3042 85.79C49.4109 85.7033 49.5209 85.6567 49.6342 85.65C49.7476 85.6367 49.8476 85.6667 49.9342 85.74C50.0476 85.8333 50.1109 85.94 50.1242 86.06C50.1376 86.1733 50.0976 86.2767 50.0042 86.37C49.5242 86.8167 48.9242 87.04 48.2042 87.04ZM58.9101 87.01C58.7634 87.01 58.6401 86.9633 58.5401 86.87C58.4467 86.77 58.4001 86.6467 58.4001 86.5V83.64C58.4001 83.22 58.2967 82.91 58.0901 82.71C57.8834 82.5033 57.6134 82.4 57.2801 82.4C56.9334 82.4 56.6467 82.52 56.4201 82.76C56.2001 83 56.0901 83.3067 56.0901 83.68H55.2601C55.2601 83.2467 55.3534 82.8667 55.5401 82.54C55.7267 82.2067 55.9867 81.9467 56.3201 81.76C56.6601 81.5733 57.0467 81.48 57.4801 81.48C57.8601 81.48 58.1967 81.5633 58.4901 81.73C58.7834 81.8967 59.0101 82.1433 59.1701 82.47C59.3367 82.79 59.4201 83.18 59.4201 83.64V86.5C59.4201 86.6467 59.3734 86.77 59.2801 86.87C59.1867 86.9633 59.0634 87.01 58.9101 87.01ZM52.2401 87.01C52.0934 87.01 51.9701 86.9633 51.8701 86.87C51.7767 86.77 51.7301 86.6467 51.7301 86.5V82.05C51.7301 81.8967 51.7767 81.7733 51.8701 81.68C51.9701 81.5867 52.0934 81.54 52.2401 81.54C52.3934 81.54 52.5167 81.5867 52.6101 81.68C52.7034 81.7733 52.7501 81.8967 52.7501 82.05V86.5C52.7501 86.6467 52.7034 86.77 52.6101 86.87C52.5167 86.9633 52.3934 87.01 52.2401 87.01ZM55.5801 87.01C55.4334 87.01 55.3101 86.9633 55.2101 86.87C55.1167 86.77 55.0701 86.6467 55.0701 86.5V83.64C55.0701 83.22 54.9667 82.91 54.7601 82.71C54.5534 82.5033 54.2834 82.4 53.9501 82.4C53.6034 82.4 53.3167 82.52 53.0901 82.76C52.8634 83 52.7501 83.3067 52.7501 83.68H52.1201C52.1201 83.2467 52.2067 82.8667 52.3801 82.54C52.5534 82.2067 52.7934 81.9467 53.1001 81.76C53.4067 81.5733 53.7567 81.48 54.1501 81.48C54.5301 81.48 54.8667 81.5633 55.1601 81.73C55.4534 81.8967 55.6801 82.1433 55.8401 82.47C56.0067 82.79 56.0901 83.18 56.0901 83.64V86.5C56.0901 86.6467 56.0434 86.77 55.9501 86.87C55.8567 86.9633 55.7334 87.01 55.5801 87.01ZM61.6248 87C61.4782 87 61.3548 86.9533 61.2548 86.86C61.1615 86.76 61.1148 86.6367 61.1148 86.49V82.03C61.1282 81.8833 61.1815 81.7633 61.2748 81.67C61.3682 81.5767 61.4848 81.53 61.6248 81.53C61.7782 81.53 61.9015 81.5767 61.9948 81.67C62.0882 81.7633 62.1348 81.8867 62.1348 82.04V83.76H64.0748V83.96C64.4415 83.96 64.7648 84.0233 65.0448 84.15C65.3315 84.2767 65.5548 84.4533 65.7148 84.68C65.8748 84.9 65.9548 85.1567 65.9548 85.45C65.9548 85.75 65.8748 86.0167 65.7148 86.25C65.5548 86.4833 65.3315 86.6667 65.0448 86.8C64.7648 86.9333 64.4415 87 64.0748 87H61.6248ZM62.1348 86.05H64.0748C64.3415 86.05 64.5582 85.9867 64.7248 85.86C64.8915 85.7267 64.9748 85.5567 64.9748 85.35C64.9748 85.13 64.8915 84.95 64.7248 84.81C64.5582 84.67 64.3415 84.6 64.0748 84.6H62.1348V86.05ZM63.2848 84.3V83.76H64.2348C64.4015 83.76 64.5382 83.6967 64.6448 83.57C64.7515 83.4367 64.8048 83.27 64.8048 83.07C64.8048 82.8967 64.7415 82.7533 64.6148 82.64C64.4882 82.5267 64.3282 82.47 64.1348 82.47H61.6348V81.53H64.1348C64.4482 81.53 64.7248 81.5933 64.9648 81.72C65.2115 81.84 65.4048 82.01 65.5448 82.23C65.6848 82.4433 65.7548 82.69 65.7548 82.97C65.7548 83.3567 65.6082 83.6767 65.3148 83.93C65.0282 84.1767 64.6682 84.3 64.2348 84.3H63.2848ZM69.7786 87.04C69.2253 87.04 68.7319 86.9233 68.2986 86.69C67.8719 86.45 67.5353 86.1233 67.2886 85.71C67.0486 85.29 66.9286 84.81 66.9286 84.27C66.9286 83.7233 67.0419 83.2433 67.2686 82.83C67.5019 82.41 67.8219 82.0833 68.2286 81.85C68.6353 81.61 69.1019 81.49 69.6286 81.49C70.1486 81.49 70.5953 81.6067 70.9686 81.84C71.3419 82.0667 71.6253 82.3833 71.8186 82.79C72.0186 83.19 72.1186 83.6533 72.1186 84.18C72.1186 84.3067 72.0753 84.4133 71.9886 84.5C71.9019 84.58 71.7919 84.62 71.6586 84.62H67.6286V83.82H71.6286L71.2186 84.1C71.2119 83.7667 71.1453 83.47 71.0186 83.21C70.8919 82.9433 70.7119 82.7333 70.4786 82.58C70.2453 82.4267 69.9619 82.35 69.6286 82.35C69.2486 82.35 68.9219 82.4333 68.6486 82.6C68.3819 82.7667 68.1786 82.9967 68.0386 83.29C67.8986 83.5767 67.8286 83.9033 67.8286 84.27C67.8286 84.6367 67.9119 84.9633 68.0786 85.25C68.2453 85.5367 68.4753 85.7633 68.7686 85.93C69.0619 86.0967 69.3986 86.18 69.7786 86.18C69.9853 86.18 70.1953 86.1433 70.4086 86.07C70.6286 85.99 70.8053 85.9 70.9386 85.8C71.0386 85.7267 71.1453 85.69 71.2586 85.69C71.3786 85.6833 71.4819 85.7167 71.5686 85.79C71.6819 85.89 71.7419 86 71.7486 86.12C71.7553 86.24 71.7019 86.3433 71.5886 86.43C71.3619 86.61 71.0786 86.7567 70.7386 86.87C70.4053 86.9833 70.0853 87.04 69.7786 87.04ZM78.0195 87C77.8729 87 77.7495 86.9533 77.6495 86.86C77.5562 86.76 77.5095 86.6367 77.5095 86.49V82.04C77.5095 81.8867 77.5562 81.7633 77.6495 81.67C77.7495 81.5767 77.8729 81.53 78.0195 81.53C78.1729 81.53 78.2929 81.5767 78.3795 81.67C78.4662 81.7633 78.5095 81.8867 78.5095 82.04V86.49C78.5095 86.6367 78.4662 86.76 78.3795 86.86C78.2929 86.9533 78.1729 87 78.0195 87ZM73.9095 87C73.7629 87 73.6429 86.9533 73.5495 86.86C73.4629 86.76 73.4195 86.6367 73.4195 86.49V82.04C73.4195 81.8867 73.4629 81.7633 73.5495 81.67C73.6429 81.5767 73.7629 81.53 73.9095 81.53C74.0629 81.53 74.1862 81.5767 74.2795 81.67C74.3729 81.7633 74.4195 81.8867 74.4195 82.04V86.49C74.4195 86.6367 74.3729 86.76 74.2795 86.86C74.1862 86.9533 74.0629 87 73.9095 87ZM74.2895 84.61V83.71H77.7995V84.61H74.2895ZM84.9141 87C84.7674 87 84.6441 86.9533 84.5441 86.86C84.4507 86.76 84.4041 86.6367 84.4041 86.49V82.04C84.4041 81.8867 84.4507 81.7633 84.5441 81.67C84.6441 81.5767 84.7674 81.53 84.9141 81.53C85.0674 81.53 85.1874 81.5767 85.2741 81.67C85.3607 81.7633 85.4041 81.8867 85.4041 82.04V86.49C85.4041 86.6367 85.3607 86.76 85.2741 86.86C85.1874 86.9533 85.0674 87 84.9141 87ZM80.8041 87C80.6574 87 80.5374 86.9533 80.4441 86.86C80.3574 86.76 80.3141 86.6367 80.3141 86.49V82.04C80.3141 81.8867 80.3574 81.7633 80.4441 81.67C80.5374 81.5767 80.6574 81.53 80.8041 81.53C80.9574 81.53 81.0807 81.5767 81.1741 81.67C81.2674 81.7633 81.3141 81.8867 81.3141 82.04V86.49C81.3141 86.6367 81.2674 86.76 81.1741 86.86C81.0807 86.9533 80.9574 87 80.8041 87ZM81.1841 84.61V83.71H84.6941V84.61H81.1841ZM89.4886 87.04C89.0019 87.04 88.5653 86.92 88.1786 86.68C87.7919 86.4333 87.4853 86.1033 87.2586 85.69C87.0386 85.27 86.9286 84.7967 86.9286 84.27C86.9286 83.7433 87.0486 83.27 87.2886 82.85C87.5353 82.43 87.8653 82.1 88.2786 81.86C88.6986 81.6133 89.1686 81.49 89.6886 81.49C90.2086 81.49 90.6753 81.6133 91.0886 81.86C91.5019 82.1 91.8286 82.43 92.0686 82.85C92.3153 83.27 92.4386 83.7433 92.4386 84.27H92.0486C92.0486 84.7967 91.9353 85.27 91.7086 85.69C91.4886 86.1033 91.1853 86.4333 90.7986 86.68C90.4119 86.92 89.9753 87.04 89.4886 87.04ZM89.6886 86.14C90.0286 86.14 90.3319 86.06 90.5986 85.9C90.8653 85.7333 91.0753 85.51 91.2286 85.23C91.3819 84.9433 91.4586 84.6233 91.4586 84.27C91.4586 83.91 91.3819 83.59 91.2286 83.31C91.0753 83.0233 90.8653 82.8 90.5986 82.64C90.3319 82.4733 90.0286 82.39 89.6886 82.39C89.3553 82.39 89.0519 82.4733 88.7786 82.64C88.5119 82.8 88.2986 83.0233 88.1386 83.31C87.9853 83.59 87.9086 83.91 87.9086 84.27C87.9086 84.6233 87.9853 84.9433 88.1386 85.23C88.2986 85.51 88.5119 85.7333 88.7786 85.9C89.0519 86.06 89.3553 86.14 89.6886 86.14ZM91.9286 87.01C91.7819 87.01 91.6586 86.9633 91.5586 86.87C91.4653 86.77 91.4186 86.6467 91.4186 86.5V84.97L91.6086 83.91L92.4386 84.27V86.5C92.4386 86.6467 92.3886 86.77 92.2886 86.87C92.1953 86.9633 92.0753 87.01 91.9286 87.01ZM97.4166 87C97.2766 87 97.16 86.9533 97.0666 86.86C96.9733 86.76 96.9266 86.6367 96.9266 86.49V85.17H95.5166V85.04C95.1633 85.04 94.85 84.97 94.5766 84.83C94.3033 84.69 94.09 84.4967 93.9366 84.25C93.7833 84.0033 93.7066 83.7167 93.7066 83.39C93.7066 83.0367 93.79 82.72 93.9566 82.44C94.13 82.16 94.3633 81.94 94.6566 81.78C94.9566 81.6133 95.3 81.53 95.6866 81.53H97.4166C97.57 81.53 97.6933 81.5767 97.7866 81.67C97.88 81.7633 97.9266 81.8867 97.9266 82.04V86.5C97.92 86.6467 97.87 86.7667 97.7766 86.86C97.69 86.9533 97.57 87 97.4166 87ZM93.8666 86.88C93.76 86.7867 93.71 86.6833 93.7166 86.57C93.7233 86.4567 93.7633 86.3533 93.8366 86.26L95.0566 84.67H96.3866L94.6766 86.8C94.5633 86.9467 94.4233 87.0167 94.2566 87.01C94.09 87.0033 93.96 86.96 93.8666 86.88ZM95.6866 84.33H96.9266V82.48H95.6866C95.42 82.48 95.1866 82.5667 94.9866 82.74C94.7866 82.9067 94.6866 83.1233 94.6866 83.39C94.6866 83.67 94.7866 83.8967 94.9866 84.07C95.1866 84.2433 95.42 84.33 95.6866 84.33ZM2.95 95.54C3.05 95.54 3.14 95.5667 3.22 95.62C3.3 95.6733 3.36333 95.7567 3.41 95.87L5.47 100.34C5.53 100.473 5.53667 100.593 5.49 100.7C5.44333 100.8 5.36333 100.877 5.25 100.93C5.10333 100.997 4.97667 101.013 4.87 100.98C4.76333 100.947 4.67333 100.863 4.6 100.73L2.72 96.46H3.23L1.29 100.73C1.23 100.857 1.14 100.94 1.02 100.98C0.906667 101.013 0.78 100.997 0.64 100.93C0.513333 100.87 0.423333 100.79 0.37 100.69C0.323333 100.59 0.333333 100.473 0.4 100.34L2.47 95.87C2.57 95.65 2.73 95.54 2.95 95.54ZM9.06914 101.05C8.60914 101.05 8.19581 100.953 7.82914 100.76C7.46914 100.56 7.18247 100.27 6.96914 99.89C6.76247 99.51 6.65914 99.0433 6.65914 98.49V96.03C6.65914 95.8833 6.70581 95.7633 6.79914 95.67C6.89914 95.57 7.02247 95.52 7.16914 95.52C7.31581 95.52 7.43581 95.57 7.52914 95.67C7.62914 95.7633 7.67914 95.8833 7.67914 96.03V98.49C7.67914 98.8633 7.74914 99.1733 7.88914 99.42C8.02914 99.66 8.21914 99.84 8.45914 99.96C8.69914 100.073 8.96914 100.13 9.26914 100.13C9.55581 100.13 9.80914 100.073 10.0291 99.96C10.2558 99.8467 10.4358 99.6933 10.5691 99.5C10.7025 99.3067 10.7691 99.09 10.7691 98.85H11.3991C11.3991 99.2633 11.2958 99.6367 11.0891 99.97C10.8891 100.303 10.6125 100.567 10.2591 100.76C9.91247 100.953 9.51581 101.05 9.06914 101.05ZM11.2791 101C11.1325 101 11.0091 100.953 10.9091 100.86C10.8158 100.76 10.7691 100.637 10.7691 100.49V96.03C10.7691 95.8767 10.8158 95.7533 10.9091 95.66C11.0091 95.5667 11.1325 95.52 11.2791 95.52C11.4325 95.52 11.5558 95.5667 11.6491 95.66C11.7425 95.7533 11.7891 95.8767 11.7891 96.03V100.49C11.7891 100.637 11.7425 100.76 11.6491 100.86C11.5558 100.953 11.4325 101 11.2791 101ZM15.8855 101.05C15.4189 101.05 15.0022 100.94 14.6355 100.72C14.2755 100.5 13.9922 100.2 13.7855 99.82C13.5789 99.4333 13.4755 98.99 13.4755 98.49V96.03C13.4755 95.8767 13.5222 95.7533 13.6155 95.66C13.7155 95.5667 13.8389 95.52 13.9855 95.52C14.1389 95.52 14.2622 95.5667 14.3555 95.66C14.4489 95.7533 14.4955 95.8767 14.4955 96.03V98.49C14.4955 98.81 14.5622 99.0933 14.6955 99.34C14.8355 99.5867 15.0255 99.78 15.2655 99.92C15.5055 100.06 15.7789 100.13 16.0855 100.13C16.3789 100.13 16.6389 100.077 16.8655 99.97C17.0922 99.8567 17.2689 99.7033 17.3955 99.51C17.5222 99.3167 17.5855 99.0967 17.5855 98.85H18.1155C18.1155 99.2767 18.0189 99.6567 17.8255 99.99C17.6389 100.323 17.3789 100.583 17.0455 100.77C16.7122 100.957 16.3255 101.05 15.8855 101.05ZM19.0955 102.78C18.9555 102.78 18.8389 102.73 18.7455 102.63C18.6522 102.53 18.6055 102.407 18.6055 102.26V101H18.4555C18.1555 101 17.9355 100.93 17.7955 100.79C17.6555 100.65 17.5855 100.43 17.5855 100.13V96.03C17.5855 95.8767 17.6322 95.7533 17.7255 95.66C17.8255 95.5667 17.9489 95.52 18.0955 95.52C18.2489 95.52 18.3722 95.5667 18.4655 95.66C18.5589 95.7533 18.6055 95.8767 18.6055 96.03V100.14H19.0255C19.1789 100.14 19.3022 100.19 19.3955 100.29C19.4955 100.383 19.5455 100.507 19.5455 100.66V102.26C19.5455 102.407 19.5022 102.53 19.4155 102.63C19.3355 102.73 19.2289 102.78 19.0955 102.78ZM23.1673 101.04C22.6139 101.04 22.1206 100.923 21.6873 100.69C21.2606 100.45 20.9239 100.123 20.6773 99.71C20.4373 99.29 20.3173 98.81 20.3173 98.27C20.3173 97.7233 20.4306 97.2433 20.6573 96.83C20.8906 96.41 21.2106 96.0833 21.6173 95.85C22.0239 95.61 22.4906 95.49 23.0173 95.49C23.5373 95.49 23.9839 95.6067 24.3573 95.84C24.7306 96.0667 25.0139 96.3833 25.2073 96.79C25.4073 97.19 25.5073 97.6533 25.5073 98.18C25.5073 98.3067 25.4639 98.4133 25.3773 98.5C25.2906 98.58 25.1806 98.62 25.0473 98.62H21.0173V97.82H25.0173L24.6073 98.1C24.6006 97.7667 24.5339 97.47 24.4073 97.21C24.2806 96.9433 24.1006 96.7333 23.8673 96.58C23.6339 96.4267 23.3506 96.35 23.0173 96.35C22.6373 96.35 22.3106 96.4333 22.0373 96.6C21.7706 96.7667 21.5673 96.9967 21.4273 97.29C21.2873 97.5767 21.2173 97.9033 21.2173 98.27C21.2173 98.6367 21.3006 98.9633 21.4673 99.25C21.6339 99.5367 21.8639 99.7633 22.1573 99.93C22.4506 100.097 22.7873 100.18 23.1673 100.18C23.3739 100.18 23.5839 100.143 23.7973 100.07C24.0173 99.99 24.1939 99.9 24.3273 99.8C24.4273 99.7267 24.5339 99.69 24.6473 99.69C24.7673 99.6833 24.8706 99.7167 24.9573 99.79C25.0706 99.89 25.1306 100 25.1373 100.12C25.1439 100.24 25.0906 100.343 24.9773 100.43C24.7506 100.61 24.4673 100.757 24.1273 100.87C23.7939 100.983 23.4739 101.04 23.1673 101.04ZM31.4082 101C31.2615 101 31.1382 100.953 31.0382 100.86C30.9449 100.76 30.8982 100.637 30.8982 100.49V96.04C30.8982 95.8867 30.9449 95.7633 31.0382 95.67C31.1382 95.5767 31.2615 95.53 31.4082 95.53C31.5615 95.53 31.6815 95.5767 31.7682 95.67C31.8549 95.7633 31.8982 95.8867 31.8982 96.04V100.49C31.8982 100.637 31.8549 100.76 31.7682 100.86C31.6815 100.953 31.5615 101 31.4082 101ZM27.2982 101C27.1515 101 27.0315 100.953 26.9382 100.86C26.8515 100.76 26.8082 100.637 26.8082 100.49V96.04C26.8082 95.8867 26.8515 95.7633 26.9382 95.67C27.0315 95.5767 27.1515 95.53 27.2982 95.53C27.4515 95.53 27.5749 95.5767 27.6682 95.67C27.7615 95.7633 27.8082 95.8867 27.8082 96.04V100.49C27.8082 100.637 27.7615 100.76 27.6682 100.86C27.5749 100.953 27.4515 101 27.2982 101ZM27.6782 98.61V97.71H31.1882V98.61H27.6782ZM35.5727 101.08C35.2527 101.08 34.9561 101.047 34.6827 100.98C34.4161 100.913 34.1727 100.823 33.9527 100.71C33.7394 100.59 33.5527 100.46 33.3927 100.32C33.2861 100.22 33.2327 100.103 33.2327 99.97C33.2327 99.83 33.2894 99.7167 33.4027 99.63C33.5027 99.55 33.6227 99.5167 33.7627 99.53C33.9094 99.5367 34.0327 99.5867 34.1327 99.68C34.2927 99.82 34.4927 99.94 34.7327 100.04C34.9727 100.133 35.2494 100.18 35.5627 100.18C35.9294 100.18 36.2194 100.103 36.4327 99.95C36.6527 99.79 36.7627 99.5867 36.7627 99.34C36.7627 99.12 36.6827 98.9467 36.5227 98.82C36.3694 98.6867 36.1761 98.6167 35.9427 98.61H35.3727C35.2261 98.61 35.1027 98.57 35.0027 98.49C34.9027 98.41 34.8527 98.3133 34.8527 98.2C34.8527 98.0867 34.9027 97.9933 35.0027 97.92C35.1027 97.8467 35.2261 97.81 35.3727 97.81H35.9327C36.1527 97.7967 36.3161 97.7233 36.4227 97.59C36.5361 97.4567 36.5927 97.29 36.5927 97.09C36.5927 96.87 36.4994 96.6967 36.3127 96.57C36.1261 96.4433 35.8561 96.38 35.5027 96.38C35.2161 96.38 34.9561 96.42 34.7227 96.5C34.4894 96.58 34.2961 96.6967 34.1427 96.85C34.0361 96.9567 33.9194 97.0167 33.7927 97.03C33.6727 97.0367 33.5561 96.9967 33.4427 96.91C33.3561 96.8433 33.3161 96.7467 33.3227 96.62C33.3361 96.4933 33.3927 96.3767 33.4927 96.27C33.7061 96.0367 33.9927 95.8467 34.3527 95.7C34.7127 95.5533 35.0894 95.48 35.4827 95.48C35.8894 95.48 36.2494 95.55 36.5627 95.69C36.8761 95.83 37.1227 96.0167 37.3027 96.25C37.4827 96.4833 37.5727 96.74 37.5727 97.02C37.5727 97.2533 37.5094 97.46 37.3827 97.64C37.2627 97.8133 37.0994 97.95 36.8927 98.05C36.6927 98.1433 36.4694 98.19 36.2227 98.19V98.11C36.5094 98.11 36.7661 98.1667 36.9927 98.28C37.2261 98.3933 37.4094 98.5467 37.5427 98.74C37.6761 98.9267 37.7427 99.1433 37.7427 99.39C37.7427 99.71 37.6461 99.9967 37.4527 100.25C37.2661 100.503 37.0094 100.707 36.6827 100.86C36.3561 101.007 35.9861 101.08 35.5727 101.08ZM41.2957 101.05C40.8357 101.05 40.4224 100.953 40.0557 100.76C39.6957 100.56 39.409 100.27 39.1957 99.89C38.989 99.51 38.8857 99.0433 38.8857 98.49V96.03C38.8857 95.8833 38.9324 95.7633 39.0257 95.67C39.1257 95.57 39.249 95.52 39.3957 95.52C39.5424 95.52 39.6624 95.57 39.7557 95.67C39.8557 95.7633 39.9057 95.8833 39.9057 96.03V98.49C39.9057 98.8633 39.9757 99.1733 40.1157 99.42C40.2557 99.66 40.4457 99.84 40.6857 99.96C40.9257 100.073 41.1957 100.13 41.4957 100.13C41.7824 100.13 42.0357 100.073 42.2557 99.96C42.4824 99.8467 42.6624 99.6933 42.7957 99.5C42.929 99.3067 42.9957 99.09 42.9957 98.85H43.6257C43.6257 99.2633 43.5224 99.6367 43.3157 99.97C43.1157 100.303 42.839 100.567 42.4857 100.76C42.139 100.953 41.7424 101.05 41.2957 101.05ZM43.5057 101C43.359 101 43.2357 100.953 43.1357 100.86C43.0424 100.76 42.9957 100.637 42.9957 100.49V96.03C42.9957 95.8767 43.0424 95.7533 43.1357 95.66C43.2357 95.5667 43.359 95.52 43.5057 95.52C43.659 95.52 43.7824 95.5667 43.8757 95.66C43.969 95.7533 44.0157 95.8767 44.0157 96.03V100.49C44.0157 100.637 43.969 100.76 43.8757 100.86C43.7824 100.953 43.659 101 43.5057 101ZM49.2721 101C49.1321 101 49.0154 100.953 48.9221 100.86C48.8288 100.76 48.7821 100.637 48.7821 100.49V99.17H47.3721V99.04C47.0188 99.04 46.7054 98.97 46.4321 98.83C46.1588 98.69 45.9454 98.4967 45.7921 98.25C45.6388 98.0033 45.5621 97.7167 45.5621 97.39C45.5621 97.0367 45.6454 96.72 45.8121 96.44C45.9854 96.16 46.2188 95.94 46.5121 95.78C46.8121 95.6133 47.1554 95.53 47.5421 95.53H49.2721C49.4254 95.53 49.5488 95.5767 49.6421 95.67C49.7354 95.7633 49.7821 95.8867 49.7821 96.04V100.5C49.7754 100.647 49.7254 100.767 49.6321 100.86C49.5454 100.953 49.4254 101 49.2721 101ZM45.7221 100.88C45.6154 100.787 45.5654 100.683 45.5721 100.57C45.5788 100.457 45.6188 100.353 45.6921 100.26L46.9121 98.67H48.2421L46.5321 100.8C46.4188 100.947 46.2788 101.017 46.1121 101.01C45.9454 101.003 45.8154 100.96 45.7221 100.88ZM47.5421 98.33H48.7821V96.48H47.5421C47.2754 96.48 47.0421 96.5667 46.8421 96.74C46.6421 96.9067 46.5421 97.1233 46.5421 97.39C46.5421 97.67 46.6421 97.8967 46.8421 98.07C47.0421 98.2433 47.2754 98.33 47.5421 98.33Z" fill="#302A3E" fill-opacity="0.6"/>
<defs>
<clipPath id="clip0_223_9743">
<rect width="48" height="61" fill="white"/>
</clipPath>
</defs>
</svg>
