<svg width="82" height="105" viewBox="0 0 82 105" fill="none" xmlns="http://www.w3.org/2000/svg">
<g clip-path="url(#clip0_223_9754)">
<path d="M53.5109 10.4499H43.9865L34.8835 20.4749V0.424791H27.4662V5.26741C27.2133 4.92758 26.9605 4.6727 26.7076 4.33287C24.0104 1.44429 20.1332 0 15.1602 0C9.42872 0 6.22581 2.54875 4.45578 4.75766C2.3486 7.47632 1.33715 11.1295 2.01145 14.1031C3.69719 21.8343 10.8616 23.1086 16.0874 23.7883C20.2175 24.298 24.179 25.0627 24.0947 28.8008C24.0104 32.624 19.7118 33.6435 16.846 33.6435C9.51301 33.6435 9.26015 28.1212 9.26015 28.1212H1.33715C1.42144 30.1602 2.09573 33.4735 4.62435 36.3621C7.40583 39.5056 11.5359 41.0348 16.9303 41.0348C21.0604 41.0348 24.8533 39.6755 27.5505 37.2967V40.61H34.9677V31.0947L37.5806 28.2061L45.0822 40.61H53.6795L42.6379 22.429L53.5109 10.4499ZM9.42872 12.4039C8.75442 9.51532 11.6202 6.96657 15.3288 6.96657C18.616 6.96657 21.9875 7.7312 23.2518 12.4039H27.4662V19.5404C22.1561 15.1226 10.693 17.8412 9.42872 12.4039ZM3.52862 58.4513C3.78148 58.5362 4.03434 58.5362 4.2872 58.5362C4.62435 58.5362 4.9615 58.4513 5.13007 58.1964C5.38293 57.9415 5.46722 57.6866 5.55151 57.3468L1 47.4916H4.03434L6.98439 54.5432L9.59729 47.4916H12.5473L8.41727 57.1769C7.91155 58.4513 7.32154 59.3858 6.64724 59.9805C6.05723 60.5752 5.38293 60.915 4.62435 60.915C4.37149 60.915 4.20291 60.915 4.03434 60.915C3.86576 60.915 3.69719 60.8301 3.6129 60.8301L3.27575 60.7451C3.19147 60.7451 3.10718 60.6602 3.02289 60.6602V58.1964C3.10718 58.2813 3.27575 58.3663 3.52862 58.4513ZM17.8574 56.922C17.6889 57.007 17.436 57.007 17.2674 57.0919C17.0146 57.0919 16.846 57.1769 16.5931 57.1769C16.3403 57.1769 16.0874 57.1769 15.9188 57.1769C15.3288 57.1769 14.9074 57.0919 14.486 57.007C14.0645 56.922 13.7274 56.7521 13.3902 56.4972C13.1374 56.2423 12.8845 55.9875 12.7159 55.6476C12.5473 55.3078 12.4631 54.883 12.4631 54.3733V50.89H14.9917V53.9485C14.9917 54.2033 14.9917 54.4582 15.076 54.6281C15.1603 54.798 15.2445 54.968 15.4131 55.0529C15.5817 55.1379 15.7503 55.2228 15.9188 55.3078C16.1717 55.3078 16.4246 55.3928 16.6774 55.3928C17.0989 55.3928 17.436 55.3928 17.6889 55.3078C17.9417 55.2228 18.1103 55.1379 18.2789 55.0529V51.0599H20.8075V60.8301H18.2789V57.007C18.1946 56.837 18.026 56.922 17.8574 56.922ZM30.7534 59.4707C30.7534 59.6407 30.8377 59.8106 30.922 59.8955C31.0062 60.0655 31.0062 60.0655 31.0905 60.1504C31.1748 60.2354 31.2591 60.2354 31.3434 60.2354V60.6602H28.5619L28.3933 60.2354C28.3091 60.0655 28.3091 59.8106 28.3091 59.5557L27.719 60.1504C27.5505 60.3203 27.2976 60.4902 27.0447 60.5752C26.7919 60.7451 26.539 60.8301 26.2862 60.915C25.949 61 25.6119 61 25.1904 61C24.769 61 24.3476 60.915 24.0104 60.8301C23.6733 60.6602 23.3361 60.4902 23.0832 60.2354C22.8304 59.9805 22.5775 59.6407 22.4932 59.3008C22.3247 58.961 22.2404 58.5362 22.2404 58.0265C22.2404 57.6017 22.3247 57.2618 22.4089 56.922C22.5775 56.5822 22.7461 56.2423 22.9147 55.9875C23.1675 55.7326 23.4204 55.4777 23.7575 55.3078C24.0947 55.1379 24.4318 55.0529 24.8533 54.968L27.2976 54.6281C27.3819 54.6281 27.4662 54.6281 27.5505 54.5432C27.6348 54.5432 27.719 54.4582 27.8033 54.3733C27.8876 54.2883 27.9719 54.2033 28.0562 54.1184C28.1405 54.0334 28.1405 53.8635 28.1405 53.6936C28.1405 53.5237 28.1405 53.3538 28.0562 53.2688C27.9719 53.0989 27.8876 53.0139 27.8033 52.929C27.6348 52.844 27.5505 52.7591 27.2976 52.6741C27.2133 52.6741 26.9605 52.6741 26.7076 52.6741C26.3704 52.6741 26.1176 52.6741 25.949 52.759C25.6961 52.844 25.5276 52.929 25.4433 53.0139C25.2747 53.1838 25.1904 53.2688 25.1904 53.4387L25.1061 53.9485H22.5775C22.5775 53.8635 22.5775 53.6936 22.6618 53.4387C22.6618 53.2688 22.7461 53.0139 22.9147 52.759C22.999 52.5042 23.1675 52.2493 23.3361 51.9944C23.5047 51.7396 23.7575 51.4847 24.0947 51.3148C24.3476 51.1448 24.769 50.89 25.1904 50.805C25.6119 50.6351 26.1176 50.6351 26.7919 50.5501C27.6348 50.5501 28.3933 50.6351 28.8991 50.805C29.4048 50.9749 29.8262 51.2298 30.1634 51.4847C30.4162 51.7396 30.6691 52.0794 30.7534 52.4192C30.8377 52.7591 30.922 53.0989 30.922 53.4387V58.6212C30.7534 59.046 30.7534 59.3008 30.7534 59.4707ZM27.8033 56.0724C27.6348 56.1574 27.4662 56.2423 27.2133 56.2423L26.539 56.4123C26.2862 56.4972 26.0333 56.4972 25.7804 56.5822C25.5276 56.6671 25.359 56.7521 25.2747 56.837C25.1061 57.007 25.0219 57.0919 24.9376 57.2618C24.8533 57.4318 24.8533 57.6017 24.8533 57.8565C24.8533 58.0265 24.8533 58.2813 24.9376 58.3663C25.0219 58.5362 25.1061 58.6212 25.1904 58.7911C25.2747 58.876 25.4433 58.961 25.6119 59.046C25.7804 59.1309 25.949 59.1309 26.1176 59.1309C26.2019 59.1309 26.3704 59.1309 26.4547 59.1309C26.6233 59.1309 26.7076 59.046 26.9605 59.046C27.129 58.961 27.2976 58.876 27.4662 58.7911C27.6348 58.7061 27.8033 58.5362 27.8876 58.3663C28.0562 58.1964 28.1405 58.0265 28.2248 57.7716C28.3091 57.5167 28.3933 57.2618 28.3933 56.922V55.9025C28.0562 55.9875 27.8876 56.0724 27.8033 56.0724ZM38.0864 53.6936C38.0021 53.5237 37.9178 53.3538 37.7492 53.1838C37.5806 53.0139 37.4121 52.929 37.2435 52.844C37.0749 52.7591 36.8221 52.759 36.5692 52.759C36.1478 52.759 35.8106 52.844 35.5578 53.0139C35.3049 53.1838 35.1363 53.4387 34.9677 53.7785C34.7992 54.1184 34.7149 54.4582 34.7149 54.798C34.7149 55.1379 34.6306 55.4777 34.6306 55.8175C34.6306 56.1574 34.6306 56.4972 34.7149 56.837C34.7149 57.1769 34.7992 57.5167 34.9677 57.7716C35.1363 58.0265 35.3049 58.2813 35.5578 58.5362C35.8106 58.7061 36.1478 58.7911 36.5692 58.7911C36.8221 58.7911 37.0749 58.7061 37.3278 58.6212C37.4964 58.5362 37.7492 58.3663 37.8335 58.1964C38.0021 58.0265 38.0864 57.8565 38.1707 57.6017C38.2549 57.4318 38.2549 57.2618 38.2549 57.0919H40.8678C40.8678 57.2618 40.8678 57.4318 40.7836 57.6866C40.6993 57.9415 40.615 58.1964 40.5307 58.5362C40.3621 58.7911 40.1936 59.1309 40.025 59.3858C39.7721 59.6407 39.5192 59.8955 39.1821 60.1504C38.845 60.4053 38.5078 60.5752 38.0864 60.7451C37.6649 60.915 37.1592 61 36.5692 61C35.8106 61 35.2206 60.915 34.6306 60.6602C34.0406 60.4053 33.6191 60.0655 33.1977 59.6407C32.7763 59.2159 32.5234 58.7061 32.3548 58.0265C32.1863 57.3468 32.0177 56.6671 32.0177 55.8175C32.0177 54.968 32.102 54.2033 32.3548 53.6086C32.6077 53.0139 32.8606 52.4192 33.282 51.9944C33.7034 51.5696 34.1249 51.2298 34.7149 50.9749C35.2206 50.7201 35.8949 50.6351 36.5692 50.6351C36.8221 50.6351 37.1592 50.6351 37.4964 50.7201C37.8335 50.7201 38.0864 50.89 38.4235 50.9749C38.7607 51.1448 39.0135 51.2298 39.3507 51.3997C39.6035 51.5696 39.8564 51.8245 40.1093 52.0794C40.3621 52.3343 40.5307 52.6741 40.615 53.0139C40.7836 53.3538 40.8678 53.7785 40.8678 54.2883H38.2549C38.2549 54.1184 38.1707 53.8635 38.0864 53.6936ZM49.9709 50.89V52.929H47.0208V60.6602H44.4922V52.929H41.5421V50.89H49.9709ZM57.2196 54.4582V50.9749H59.7482V60.7451H57.2196V56.5822H53.5109V60.7451H50.9823V50.89H53.5109V54.3733H57.2196V54.4582ZM64.2154 56.922L67.7555 50.89H70.3684V60.6602H67.8398V54.798L64.384 60.6602H61.6868V50.89H64.2154V56.922ZM78.4599 50.89H81.8314L77.8699 54.968L82 60.6602H78.7128L75.847 56.4972L74.8356 57.5167V60.5752H72.307V50.89H74.8356V54.6281L78.4599 50.89Z" fill="#4D5759"/>
</g>
<path d="M2.95 87.09C2.64333 87.09 2.35 87 2.07 86.82C1.94333 86.74 1.86333 86.6367 1.83 86.51C1.80333 86.3833 1.82667 86.2633 1.9 86.15C1.97333 86.03 2.07667 85.96 2.21 85.94C2.34333 85.9133 2.48333 85.94 2.63 86.02C2.67667 86.0467 2.73 86.07 2.79 86.09C2.85 86.1033 2.90333 86.11 2.95 86.11C3.13 86.11 3.31333 86.0267 3.5 85.86C3.69333 85.6867 3.86333 85.4467 4.01 85.14L6.76 79.5C6.90667 79.2067 7.12333 79.1233 7.41 79.25C7.69667 79.3767 7.76667 79.59 7.62 79.89L4.87 85.54C4.63 86.0267 4.34667 86.4067 4.02 86.68C3.69333 86.9533 3.33667 87.09 2.95 87.09ZM4.41 85.42L1.07 79.94C0.91 79.6667 0.973333 79.4467 1.26 79.28C1.54 79.12 1.76333 79.18 1.93 79.46L5.06 84.91L4.41 85.42ZM10.5815 85.36C10.1015 85.36 9.70482 85.25 9.39148 85.03C9.07815 84.81 8.84482 84.51 8.69148 84.13C8.54482 83.7433 8.47148 83.3 8.47148 82.8V82.04C8.47148 81.8867 8.51815 81.7633 8.61148 81.67C8.71148 81.5767 8.83482 81.53 8.98148 81.53C9.13482 81.53 9.25815 81.5767 9.35148 81.67C9.44482 81.7633 9.49148 81.8867 9.49148 82.04V82.8C9.49148 83.28 9.58482 83.6733 9.77148 83.98C9.96482 84.2867 10.3015 84.44 10.7815 84.44C11.1615 84.44 11.4715 84.3767 11.7115 84.25C11.9582 84.1233 12.0815 83.96 12.0815 83.76H12.6115C12.6115 84.0733 12.5248 84.35 12.3515 84.59C12.1782 84.83 11.9382 85.02 11.6315 85.16C11.3315 85.2933 10.9815 85.36 10.5815 85.36ZM12.5915 87C12.4448 87 12.3215 86.9533 12.2215 86.86C12.1282 86.76 12.0815 86.6367 12.0815 86.49V82.04C12.0815 81.8867 12.1282 81.7633 12.2215 81.67C12.3215 81.5767 12.4448 81.53 12.5915 81.53C12.7448 81.53 12.8682 81.5767 12.9615 81.67C13.0548 81.7633 13.1015 81.8867 13.1015 82.04V86.49C13.1015 86.6367 13.0548 86.76 12.9615 86.86C12.8682 86.9533 12.7448 87 12.5915 87ZM17.178 87.04C16.6914 87.04 16.2547 86.92 15.868 86.68C15.4814 86.4333 15.1747 86.1033 14.948 85.69C14.728 85.27 14.618 84.7967 14.618 84.27C14.618 83.7433 14.738 83.27 14.978 82.85C15.2247 82.43 15.5547 82.1 15.968 81.86C16.388 81.6133 16.858 81.49 17.378 81.49C17.898 81.49 18.3647 81.6133 18.778 81.86C19.1914 82.1 19.518 82.43 19.758 82.85C20.0047 83.27 20.128 83.7433 20.128 84.27H19.738C19.738 84.7967 19.6247 85.27 19.398 85.69C19.178 86.1033 18.8747 86.4333 18.488 86.68C18.1014 86.92 17.6647 87.04 17.178 87.04ZM17.378 86.14C17.718 86.14 18.0214 86.06 18.288 85.9C18.5547 85.7333 18.7647 85.51 18.918 85.23C19.0714 84.9433 19.148 84.6233 19.148 84.27C19.148 83.91 19.0714 83.59 18.918 83.31C18.7647 83.0233 18.5547 82.8 18.288 82.64C18.0214 82.4733 17.718 82.39 17.378 82.39C17.0447 82.39 16.7414 82.4733 16.468 82.64C16.2014 82.8 15.988 83.0233 15.828 83.31C15.6747 83.59 15.598 83.91 15.598 84.27C15.598 84.6233 15.6747 84.9433 15.828 85.23C15.988 85.51 16.2014 85.7333 16.468 85.9C16.7414 86.06 17.0447 86.14 17.378 86.14ZM19.618 87.01C19.4714 87.01 19.348 86.9633 19.248 86.87C19.1547 86.77 19.108 86.6467 19.108 86.5V84.97L19.298 83.91L20.128 84.27V86.5C20.128 86.6467 20.078 86.77 19.978 86.87C19.8847 86.9633 19.7647 87.01 19.618 87.01ZM24.1261 87.04C23.5928 87.04 23.1161 86.92 22.6961 86.68C22.2828 86.4333 21.9561 86.1033 21.7161 85.69C21.4828 85.27 21.3661 84.7967 21.3661 84.27C21.3661 83.73 21.4828 83.25 21.7161 82.83C21.9494 82.41 22.2694 82.0833 22.6761 81.85C23.0828 81.61 23.5494 81.49 24.0761 81.49C24.4694 81.49 24.8294 81.5667 25.1561 81.72C25.4828 81.8667 25.7761 82.09 26.0361 82.39C26.1294 82.4967 26.1628 82.6067 26.1361 82.72C26.1094 82.8333 26.0361 82.9333 25.9161 83.02C25.8228 83.0867 25.7194 83.11 25.6061 83.09C25.4928 83.0633 25.3894 83.0033 25.2961 82.91C24.9694 82.5633 24.5628 82.39 24.0761 82.39C23.7361 82.39 23.4361 82.47 23.1761 82.63C22.9161 82.7833 22.7128 83 22.5661 83.28C22.4194 83.56 22.3461 83.89 22.3461 84.27C22.3461 84.63 22.4194 84.95 22.5661 85.23C22.7194 85.51 22.9294 85.7333 23.1961 85.9C23.4628 86.06 23.7728 86.14 24.1261 86.14C24.3594 86.14 24.5628 86.1133 24.7361 86.06C24.9161 86 25.0794 85.91 25.2261 85.79C25.3328 85.7033 25.4428 85.6567 25.5561 85.65C25.6694 85.6367 25.7694 85.6667 25.8561 85.74C25.9694 85.8333 26.0328 85.94 26.0461 86.06C26.0594 86.1733 26.0194 86.2767 25.9261 86.37C25.4461 86.8167 24.8461 87.04 24.1261 87.04ZM34.832 87.01C34.6853 87.01 34.562 86.9633 34.462 86.87C34.3686 86.77 34.322 86.6467 34.322 86.5V83.64C34.322 83.22 34.2186 82.91 34.012 82.71C33.8053 82.5033 33.5353 82.4 33.202 82.4C32.8553 82.4 32.5686 82.52 32.342 82.76C32.122 83 32.012 83.3067 32.012 83.68H31.182C31.182 83.2467 31.2753 82.8667 31.462 82.54C31.6486 82.2067 31.9086 81.9467 32.242 81.76C32.582 81.5733 32.9686 81.48 33.402 81.48C33.782 81.48 34.1186 81.5633 34.412 81.73C34.7053 81.8967 34.932 82.1433 35.092 82.47C35.2586 82.79 35.342 83.18 35.342 83.64V86.5C35.342 86.6467 35.2953 86.77 35.202 86.87C35.1086 86.9633 34.9853 87.01 34.832 87.01ZM28.162 87.01C28.0153 87.01 27.892 86.9633 27.792 86.87C27.6986 86.77 27.652 86.6467 27.652 86.5V82.05C27.652 81.8967 27.6986 81.7733 27.792 81.68C27.892 81.5867 28.0153 81.54 28.162 81.54C28.3153 81.54 28.4386 81.5867 28.532 81.68C28.6253 81.7733 28.672 81.8967 28.672 82.05V86.5C28.672 86.6467 28.6253 86.77 28.532 86.87C28.4386 86.9633 28.3153 87.01 28.162 87.01ZM31.502 87.01C31.3553 87.01 31.232 86.9633 31.132 86.87C31.0386 86.77 30.992 86.6467 30.992 86.5V83.64C30.992 83.22 30.8886 82.91 30.682 82.71C30.4753 82.5033 30.2053 82.4 29.872 82.4C29.5253 82.4 29.2386 82.52 29.012 82.76C28.7853 83 28.672 83.3067 28.672 83.68H28.042C28.042 83.2467 28.1286 82.8667 28.302 82.54C28.4753 82.2067 28.7153 81.9467 29.022 81.76C29.3286 81.5733 29.6786 81.48 30.072 81.48C30.452 81.48 30.7886 81.5633 31.082 81.73C31.3753 81.8967 31.602 82.1433 31.762 82.47C31.9286 82.79 32.012 83.18 32.012 83.64V86.5C32.012 86.6467 31.9653 86.77 31.872 86.87C31.7786 86.9633 31.6553 87.01 31.502 87.01ZM41.6367 87C41.4901 87 41.3667 86.9533 41.2667 86.86C41.1734 86.76 41.1267 86.6367 41.1267 86.49V82.04C41.1267 81.8867 41.1734 81.7633 41.2667 81.67C41.3667 81.5767 41.4901 81.53 41.6367 81.53C41.7901 81.53 41.9101 81.5767 41.9967 81.67C42.0834 81.7633 42.1267 81.8867 42.1267 82.04V86.49C42.1267 86.6367 42.0834 86.76 41.9967 86.86C41.9101 86.9533 41.7901 87 41.6367 87ZM37.5267 87C37.3801 87 37.2601 86.9533 37.1667 86.86C37.0801 86.76 37.0367 86.6367 37.0367 86.49V82.04C37.0367 81.8867 37.0801 81.7633 37.1667 81.67C37.2601 81.5767 37.3801 81.53 37.5267 81.53C37.6801 81.53 37.8034 81.5767 37.8967 81.67C37.9901 81.7633 38.0367 81.8867 38.0367 82.04V86.49C38.0367 86.6367 37.9901 86.76 37.8967 86.86C37.8034 86.9533 37.6801 87 37.5267 87ZM37.9067 84.61V83.71H41.4167V84.61H37.9067ZM46.2313 87.05C45.7713 87.05 45.3579 86.9533 44.9913 86.76C44.6313 86.56 44.3446 86.27 44.1313 85.89C43.9246 85.51 43.8213 85.0433 43.8213 84.49V82.03C43.8213 81.8833 43.8679 81.7633 43.9613 81.67C44.0613 81.57 44.1846 81.52 44.3313 81.52C44.4779 81.52 44.5979 81.57 44.6913 81.67C44.7913 81.7633 44.8413 81.8833 44.8413 82.03V84.49C44.8413 84.8633 44.9113 85.1733 45.0513 85.42C45.1913 85.66 45.3813 85.84 45.6213 85.96C45.8613 86.0733 46.1313 86.13 46.4313 86.13C46.7179 86.13 46.9713 86.0733 47.1913 85.96C47.4179 85.8467 47.5979 85.6933 47.7313 85.5C47.8646 85.3067 47.9313 85.09 47.9313 84.85H48.5613C48.5613 85.2633 48.4579 85.6367 48.2513 85.97C48.0513 86.3033 47.7746 86.5667 47.4213 86.76C47.0746 86.9533 46.6779 87.05 46.2313 87.05ZM48.4413 87C48.2946 87 48.1713 86.9533 48.0713 86.86C47.9779 86.76 47.9313 86.6367 47.9313 86.49V82.03C47.9313 81.8767 47.9779 81.7533 48.0713 81.66C48.1713 81.5667 48.2946 81.52 48.4413 81.52C48.5946 81.52 48.7179 81.5667 48.8113 81.66C48.9046 81.7533 48.9513 81.8767 48.9513 82.03V86.49C48.9513 86.6367 48.9046 86.76 48.8113 86.86C48.7179 86.9533 48.5946 87 48.4413 87ZM55.1877 86.88C55.101 86.96 54.9777 87 54.8177 87C54.6643 86.9933 54.5443 86.9467 54.4577 86.86L52.0277 84.25L54.3177 81.69C54.4043 81.5967 54.5243 81.5433 54.6777 81.53C54.8377 81.5167 54.961 81.55 55.0477 81.63C55.1477 81.7233 55.2043 81.83 55.2177 81.95C55.231 82.0633 55.1943 82.1667 55.1077 82.26L53.2977 84.2L55.2177 86.26C55.3043 86.3467 55.3477 86.45 55.3477 86.57C55.3477 86.6833 55.2943 86.7867 55.1877 86.88ZM51.2277 87.01C51.081 87.01 50.9643 86.9633 50.8777 86.87C50.791 86.77 50.7477 86.6467 50.7477 86.5V82.04C50.7477 81.8867 50.791 81.7633 50.8777 81.67C50.9643 81.5767 51.081 81.53 51.2277 81.53C51.381 81.53 51.5043 81.5767 51.5977 81.67C51.6977 81.7633 51.7477 81.8867 51.7477 82.04V83.71H53.0277V84.65H51.7477V86.5C51.7477 86.6467 51.6977 86.77 51.5977 86.87C51.5043 86.9633 51.381 87.01 51.2277 87.01ZM4.48 101.1C4.05333 101.1 3.64667 101.033 3.26 100.9C2.87333 100.767 2.53667 100.58 2.25 100.34C1.96333 100.1 1.75333 99.8233 1.62 99.51C1.55333 99.37 1.55333 99.24 1.62 99.12C1.69333 99 1.81333 98.9233 1.98 98.89C2.1 98.8633 2.21667 98.8833 2.33 98.95C2.45 99.01 2.54 99.1033 2.6 99.23C2.68 99.3967 2.81 99.55 2.99 99.69C3.17667 99.83 3.4 99.9433 3.66 100.03C3.92 100.117 4.19333 100.16 4.48 100.16C4.8 100.16 5.09333 100.11 5.36 100.01C5.63333 99.91 5.85333 99.7667 6.02 99.58C6.18667 99.3867 6.27 99.15 6.27 98.87C6.27 98.5167 6.13 98.2 5.85 97.92C5.57667 97.64 5.12333 97.4667 4.49 97.4C3.66333 97.32 3.01333 97.0767 2.54 96.67C2.06667 96.2633 1.83 95.76 1.83 95.16C1.83 94.72 1.95333 94.3467 2.2 94.04C2.44667 93.7333 2.78 93.5 3.2 93.34C3.62667 93.18 4.1 93.1 4.62 93.1C5.02667 93.1 5.38 93.1567 5.68 93.27C5.98667 93.3833 6.25333 93.54 6.48 93.74C6.70667 93.94 6.90333 94.1767 7.07 94.45C7.16333 94.5967 7.2 94.7367 7.18 94.87C7.16667 94.9967 7.10333 95.0967 6.99 95.17C6.86333 95.25 6.72667 95.2667 6.58 95.22C6.43333 95.1733 6.32333 95.0867 6.25 94.96C6.14333 94.7667 6.01333 94.6033 5.86 94.47C5.70667 94.3367 5.52667 94.2333 5.32 94.16C5.11333 94.08 4.87 94.04 4.59 94.04C4.09667 94.0333 3.68333 94.1267 3.35 94.32C3.01667 94.5067 2.85 94.7967 2.85 95.19C2.85 95.39 2.9 95.5833 3 95.77C3.10667 95.95 3.29667 96.1067 3.57 96.24C3.85 96.3733 4.25 96.4667 4.77 96.52C5.56333 96.6 6.18 96.8433 6.62 97.25C7.06667 97.65 7.29 98.18 7.29 98.84C7.29 99.22 7.21 99.55 7.05 99.83C6.89667 100.11 6.68667 100.347 6.42 100.54C6.16 100.727 5.86 100.867 5.52 100.96C5.18667 101.053 4.84 101.1 4.48 101.1ZM9.74477 99L9.12477 98.32L12.1948 95.58C12.2948 95.4867 12.4048 95.4433 12.5248 95.45C12.6514 95.4567 12.7581 95.51 12.8448 95.61C12.9381 95.71 12.9814 95.82 12.9748 95.94C12.9681 96.06 12.9148 96.1667 12.8148 96.26L9.74477 99ZM9.27477 101C9.1281 101 9.0081 100.957 8.91477 100.87C8.8281 100.777 8.78477 100.657 8.78477 100.51V93.68C8.78477 93.5333 8.8281 93.4167 8.91477 93.33C9.0081 93.2367 9.1281 93.19 9.27477 93.19C9.42143 93.19 9.5381 93.2367 9.62477 93.33C9.7181 93.4167 9.76477 93.5333 9.76477 93.68V100.51C9.76477 100.657 9.7181 100.777 9.62477 100.87C9.5381 100.957 9.42143 101 9.27477 101ZM12.8448 100.95C12.7381 101.037 12.6181 101.073 12.4848 101.06C12.3581 101.053 12.2514 100.997 12.1648 100.89L10.1348 98.38L10.8348 97.72L12.9148 100.28C13.0014 100.387 13.0381 100.503 13.0248 100.63C13.0181 100.75 12.9581 100.857 12.8448 100.95ZM16.4601 101.04C15.9201 101.04 15.4434 100.923 15.0301 100.69C14.6167 100.45 14.2901 100.123 14.0501 99.71C13.8167 99.29 13.7001 98.81 13.7001 98.27C13.7001 97.7233 13.8167 97.2433 14.0501 96.83C14.2901 96.41 14.6167 96.0833 15.0301 95.85C15.4434 95.61 15.9201 95.49 16.4601 95.49C16.9934 95.49 17.4667 95.61 17.8801 95.85C18.2934 96.0833 18.6167 96.41 18.8501 96.83C19.0901 97.2433 19.2101 97.7233 19.2101 98.27C19.2101 98.81 19.0934 99.29 18.8601 99.71C18.6267 100.123 18.3034 100.45 17.8901 100.69C17.4767 100.923 17.0001 101.04 16.4601 101.04ZM16.4601 100.14C16.8067 100.14 17.1134 100.06 17.3801 99.9C17.6467 99.74 17.8534 99.52 18.0001 99.24C18.1534 98.96 18.2301 98.6367 18.2301 98.27C18.2301 97.9033 18.1534 97.58 18.0001 97.3C17.8534 97.0133 17.6467 96.79 17.3801 96.63C17.1134 96.47 16.8067 96.39 16.4601 96.39C16.1134 96.39 15.8067 96.47 15.5401 96.63C15.2734 96.79 15.0634 97.0133 14.9101 97.3C14.7567 97.58 14.6801 97.9033 14.6801 98.27C14.6801 98.6367 14.7567 98.96 14.9101 99.24C15.0634 99.52 15.2734 99.74 15.5401 99.9C15.8067 100.06 16.1134 100.14 16.4601 100.14ZM22.0281 101C21.7348 101 21.4748 100.92 21.2481 100.76C21.0215 100.6 20.8448 100.383 20.7181 100.11C20.5915 99.83 20.5281 99.51 20.5281 99.15V93.69C20.5281 93.5433 20.5748 93.4233 20.6681 93.33C20.7615 93.2367 20.8815 93.19 21.0281 93.19C21.1748 93.19 21.2948 93.2367 21.3881 93.33C21.4815 93.4233 21.5281 93.5433 21.5281 93.69V99.15C21.5281 99.3967 21.5748 99.6 21.6681 99.76C21.7615 99.92 21.8815 100 22.0281 100H22.2781C22.4115 100 22.5181 100.047 22.5981 100.14C22.6848 100.233 22.7281 100.353 22.7281 100.5C22.7281 100.647 22.6648 100.767 22.5381 100.86C22.4115 100.953 22.2481 101 22.0481 101H22.0281ZM24.6862 99L24.0662 98.32L27.1362 95.58C27.2362 95.4867 27.3462 95.4433 27.4662 95.45C27.5928 95.4567 27.6995 95.51 27.7862 95.61C27.8795 95.71 27.9228 95.82 27.9162 95.94C27.9095 96.06 27.8562 96.1667 27.7562 96.26L24.6862 99ZM24.2162 101C24.0695 101 23.9495 100.957 23.8562 100.87C23.7695 100.777 23.7262 100.657 23.7262 100.51V93.68C23.7262 93.5333 23.7695 93.4167 23.8562 93.33C23.9495 93.2367 24.0695 93.19 24.2162 93.19C24.3628 93.19 24.4795 93.2367 24.5662 93.33C24.6595 93.4167 24.7062 93.5333 24.7062 93.68V100.51C24.7062 100.657 24.6595 100.777 24.5662 100.87C24.4795 100.957 24.3628 101 24.2162 101ZM27.7862 100.95C27.6795 101.037 27.5595 101.073 27.4262 101.06C27.2995 101.053 27.1928 100.997 27.1062 100.89L25.0762 98.38L25.7762 97.72L27.8562 100.28C27.9428 100.387 27.9795 100.503 27.9662 100.63C27.9595 100.75 27.8995 100.857 27.7862 100.95ZM31.4015 101.04C30.8615 101.04 30.3848 100.923 29.9715 100.69C29.5582 100.45 29.2315 100.123 28.9915 99.71C28.7582 99.29 28.6415 98.81 28.6415 98.27C28.6415 97.7233 28.7582 97.2433 28.9915 96.83C29.2315 96.41 29.5582 96.0833 29.9715 95.85C30.3848 95.61 30.8615 95.49 31.4015 95.49C31.9348 95.49 32.4082 95.61 32.8215 95.85C33.2348 96.0833 33.5582 96.41 33.7915 96.83C34.0315 97.2433 34.1515 97.7233 34.1515 98.27C34.1515 98.81 34.0348 99.29 33.8015 99.71C33.5682 100.123 33.2448 100.45 32.8315 100.69C32.4182 100.923 31.9415 101.04 31.4015 101.04ZM31.4015 100.14C31.7482 100.14 32.0548 100.06 32.3215 99.9C32.5882 99.74 32.7948 99.52 32.9415 99.24C33.0948 98.96 33.1715 98.6367 33.1715 98.27C33.1715 97.9033 33.0948 97.58 32.9415 97.3C32.7948 97.0133 32.5882 96.79 32.3215 96.63C32.0548 96.47 31.7482 96.39 31.4015 96.39C31.0548 96.39 30.7482 96.47 30.4815 96.63C30.2148 96.79 30.0048 97.0133 29.8515 97.3C29.6982 97.58 29.6215 97.9033 29.6215 98.27C29.6215 98.6367 29.6982 98.96 29.8515 99.24C30.0048 99.52 30.2148 99.74 30.4815 99.9C30.7482 100.06 31.0548 100.14 31.4015 100.14ZM37.2168 100.99C37.0101 100.99 36.8501 100.88 36.7368 100.66L34.6168 96.19C34.5635 96.0767 34.5568 95.9667 34.5968 95.86C34.6435 95.7467 34.7301 95.66 34.8568 95.6C34.9701 95.54 35.0835 95.53 35.1968 95.57C35.3168 95.61 35.4068 95.6867 35.4668 95.8L37.4468 100.07H36.9668L38.9268 95.8C38.9868 95.6867 39.0768 95.61 39.1968 95.57C39.3235 95.53 39.4501 95.54 39.5768 95.6C39.6968 95.6533 39.7768 95.7367 39.8168 95.85C39.8568 95.9633 39.8501 96.0767 39.7968 96.19L37.6768 100.66C37.5768 100.88 37.4235 100.99 37.2168 100.99ZM43.13 101.04C42.59 101.04 42.1133 100.923 41.7 100.69C41.2867 100.45 40.96 100.123 40.72 99.71C40.4867 99.29 40.37 98.81 40.37 98.27C40.37 97.7233 40.4867 97.2433 40.72 96.83C40.96 96.41 41.2867 96.0833 41.7 95.85C42.1133 95.61 42.59 95.49 43.13 95.49C43.6633 95.49 44.1367 95.61 44.55 95.85C44.9633 96.0833 45.2867 96.41 45.52 96.83C45.76 97.2433 45.88 97.7233 45.88 98.27C45.88 98.81 45.7633 99.29 45.53 99.71C45.2967 100.123 44.9733 100.45 44.56 100.69C44.1467 100.923 43.67 101.04 43.13 101.04ZM43.13 100.14C43.4767 100.14 43.7833 100.06 44.05 99.9C44.3167 99.74 44.5233 99.52 44.67 99.24C44.8233 98.96 44.9 98.6367 44.9 98.27C44.9 97.9033 44.8233 97.58 44.67 97.3C44.5233 97.0133 44.3167 96.79 44.05 96.63C43.7833 96.47 43.4767 96.39 43.13 96.39C42.7833 96.39 42.4767 96.47 42.21 96.63C41.9433 96.79 41.7333 97.0133 41.58 97.3C41.4267 97.58 41.35 97.9033 41.35 98.27C41.35 98.6367 41.4267 98.96 41.58 99.24C41.7333 99.52 41.9433 99.74 42.21 99.9C42.4767 100.06 42.7833 100.14 43.13 100.14Z" fill="#302A3E" fill-opacity="0.6"/>
<defs>
<clipPath id="clip0_223_9754">
<rect width="81" height="61" fill="white" transform="translate(1)"/>
</clipPath>
</defs>
</svg>
