<svg width="17" height="17" viewBox="0 0 17 17" fill="none" xmlns="http://www.w3.org/2000/svg">
<rect x="0.75" y="0.206421" width="16.1134" height="16.1134" rx="8.05668" transform="rotate(0.214815 0.75 0.206421)" fill="#302A3E"/>
<path fill-rule="evenodd" clip-rule="evenodd" d="M12.5902 4.11938H9.64755C9.32631 4.11938 9.16543 4.50778 9.39258 4.73494L10.3715 5.71386L8.28411 7.80125C8.01245 8.07291 8.01245 8.51336 8.28411 8.78502C8.55577 9.05667 8.99622 9.05667 9.26787 8.78502L11.3553 6.69762L12.3352 7.67758C12.5624 7.90473 12.9508 7.74385 12.9508 7.42261V4.47997C12.9508 4.28082 12.7893 4.11938 12.5902 4.11938ZM8.08066 4.58326C8.46484 4.58326 8.77629 4.8947 8.77629 5.27888C8.77629 5.66306 8.46484 5.9745 8.08066 5.9745H6.92129C6.40904 5.9745 5.99379 6.38976 5.99379 6.902V10.1483C5.99379 10.6605 6.40904 11.0758 6.92129 11.0758H10.1675C10.6798 11.0758 11.095 10.6605 11.095 10.1483V8.98888C11.095 8.60469 11.4065 8.29325 11.7907 8.29325C12.1748 8.29325 12.4863 8.60469 12.4863 8.98888V10.1483C12.4863 11.4289 11.4481 12.467 10.1675 12.467H6.92129C5.64068 12.467 4.60254 11.4289 4.60254 10.1483V6.902C4.60254 5.62139 5.64068 4.58326 6.92129 4.58326H8.08066Z" fill="white"/>
</svg>
